<?xml version="1.0" encoding="UTF-8"?>
<!DOCTYPE svg PUBLIC "-//W3C//DTD SVG 1.1//EN" "http://www.w3.org/Graphics/SVG/1.1/DTD/svg11.dtd">
<!-- Creator: CorelDRAW -->
<svg xmlns="http://www.w3.org/2000/svg" xml:space="preserve" width="15.655mm" height="15.655mm" version="1.1" style="shape-rendering:geometricPrecision; text-rendering:geometricPrecision; image-rendering:optimizeQuality; fill-rule:evenodd; clip-rule:evenodd"
viewBox="0 0 1565.5 1565.5"
 xmlns:xlink="http://www.w3.org/1999/xlink"
 xmlns:xodm="http://www.corel.com/coreldraw/odm/2003">
 <defs>
  <style type="text/css">
   <![CDATA[
    .fil0 {fill:#FEFEFE}
   ]]>
  </style>
 </defs>
 <g id="Capa_x0020_1">
  <metadata id="CorelCorpID_0Corel-Layer"/>
  <path class="fil0" d="M372.35 1196.33c5.48,-31.04 16.71,-63.41 24.76,-94.02 14,-53.19 24.52,-59.61 5.94,-88.64 -121.86,-190.4 -65.29,-443.02 101.86,-575.96 21.81,-17.35 41.56,-31.7 70.32,-45.72 413.33,-201.62 785.57,241.41 595.23,595.36 -40.45,75.24 -97.69,134.4 -167.42,176.18 -145.43,87.14 -302.76,77.64 -449.75,-1.16 -30.99,-16.63 -118.55,23.63 -180.94,33.96zm674.46 -287.05c-22.13,-14.32 -64.81,-35.02 -93.88,-48.09 -48.98,-22.04 -41.33,-16.54 -81.28,32.46 -11.37,13.96 -15.5,29.5 -41.97,19.83 -14.38,-5.26 -34.72,-15.74 -48.08,-23.84 -35.3,-21.35 -53.59,-36.09 -82.17,-65.06 -10.82,-10.98 -57.78,-66.16 -50.85,-86.77 11,-32.75 57.51,-36.89 32.92,-91.78 -31.6,-70.5 -32.2,-128.02 -104.64,-105.08 -17.36,5.5 -29.84,21.99 -40.21,35.62 -114.22,150.14 161.09,430.33 352.26,459.75 90.75,13.95 166.63,-36.25 157.9,-127.04zm-801.38 413.64c74.28,-17.74 150.29,-39.29 224.46,-58.49 73.16,-18.94 46.87,-14.66 108.88,10.97 256.86,106.11 537.99,-6.81 668.62,-242.43 134.85,-243.23 44.33,-543 -175.65,-692.45 -292.88,-198.96 -707.12,-47.19 -803.37,298.02 -22.28,79.89 -26.88,167.68 -9.68,251.48 33.64,164.07 74.91,109.97 45.48,212.85l-58.74 220.05z"/>
 </g>
</svg>
